<svg xmlns="http://www.w3.org/2000/svg" xmlns:svgjs="http://svgjs.com/svgjs" xmlns:xlink="http://www.w3.org/1999/xlink" width="288" height="288"><svg xmlns="http://www.w3.org/2000/svg" width="288" height="288" enable-background="new 0 0 330 330" viewBox="0 0 330 330"><path fill="#0c9" d="M315 260c-8.284 0-15 6.716-15 15v20c0 8.284 6.716 15 15 15 8.284 0 15-6.716 15-15v-20C330 266.716 323.284 260 315 260zM15 260c-8.284 0-15 6.716-15 15v20c0 8.284 6.716 15 15 15s15-6.716 15-15v-20C30 266.716 23.284 260 15 260zM240 280c-8.284 0-15 6.716-15 15v20c0 8.284 6.716 15 15 15 8.284 0 15-6.716 15-15v-20C255 286.716 248.284 280 240 280zM90 280c-8.284 0-15 6.716-15 15v20c0 8.284 6.716 15 15 15s15-6.716 15-15v-20C105 286.716 98.284 280 90 280zM165 260c-8.284 0-15 6.716-15 15v20c0 8.284 6.716 15 15 15 8.284 0 15-6.716 15-15v-20C180 266.716 173.284 260 165 260zM330 144.96c0-46.869-38.131-85-85-85h-1.668C229.161 24.135 194.356 0 155 0c-50.928 0-92.626 40.282-94.902 90.658C26.17 95.481 0 124.721 0 159.96c0 38.598 31.402 70 70 70h175C291.869 229.96 330 191.829 330 144.96zM30 159.96c0-22.056 17.944-40 40-40h5c8.284 0 15-6.716 15-15V95c0-35.841 29.159-65 65-65 29.663 0 55.546 20.029 62.943 48.706 1.708 6.625 7.683 11.254 14.524 11.254H245c30.327 0 55 24.673 55 55 0 30.327-24.673 55-55 55H70C47.944 199.96 30 182.016 30 159.96z" class="color000 svgShape"/></svg></svg>