<svg xmlns="http://www.w3.org/2000/svg" xmlns:svgjs="http://svgjs.com/svgjs" xmlns:xlink="http://www.w3.org/1999/xlink" width="288" height="288"><svg xmlns="http://www.w3.org/2000/svg" width="288" height="288" data-name="Layer 1" viewBox="0 0 32 32"><path fill="#0c9" d="M11,16V11h1a4.0045,4.0045,0,0,0,4-4V4H13a3.9779,3.9779,0,0,0-2.7468,1.1067A6.0034,6.0034,0,0,0,5,2H2V5a6.0066,6.0066,0,0,0,6,6H9v5H2v2H16V16ZM13,6h1V7a2.002,2.002,0,0,1-2,2H11V8A2.002,2.002,0,0,1,13,6ZM8,9A4.0045,4.0045,0,0,1,4,5V4H5A4.0045,4.0045,0,0,1,9,8V9Z" class="color000 svgShape"/><rect width="14" height="2" x="2" y="21" fill="#0c9" class="color000 svgShape"/><rect width="14" height="2" x="2" y="26" fill="#0c9" class="color000 svgShape"/><path fill="#0c9" d="M25,30a4.9863,4.9863,0,0,1-3-8.98V15a3,3,0,0,1,6,0v6.02A4.9863,4.9863,0,0,1,25,30Zm0-16a1.0011,1.0011,0,0,0-1,1v7.13l-.4971.2893A2.9676,2.9676,0,0,0,22,25a3,3,0,0,0,6,0,2.9676,2.9676,0,0,0-1.5029-2.5811L26,22.13V15A1.0011,1.0011,0,0,0,25,14Z" class="color000 svgShape"/><rect width="32" height="32" fill="none" data-name="&amp;lt;Transparent Rectangle&amp;gt;"/></svg></svg>